<svg width="1200" height="630" viewBox="0 0 1200 630" fill="none" xmlns="http://www.w3.org/2000/svg">
  <rect width="1200" height="630" fill="url(#techGradient1)"/>
  <defs>
    <linearGradient id="techGradient1" x1="0" y1="0" x2="1200" y2="630" gradientUnits="userSpaceOnUse">
      <stop offset="0%" stop-color="#2563eb"/>
      <stop offset="100%" stop-color="#1d4ed8"/>
    </linearGradient>
  </defs>
  
  <g opacity="0.1">
    <circle cx="120" cy="120" r="60" stroke="white" stroke-width="2" fill="none"/>
    <circle cx="1080" cy="510" r="60" stroke="white" stroke-width="2" fill="none"/>
    <rect x="200" y="450" width="80" height="80" stroke="white" stroke-width="2" fill="none" transform="rotate(45 240 490)"/>
  </g>
  
  <g transform="translate(450, 215)">
    <rect x="0" y="0" width="300" height="200" rx="12" fill="white" opacity="0.15"/>
    <rect x="30" y="30" width="60" height="40" rx="4" fill="white" opacity="0.3"/>
    <rect x="110" y="30" width="60" height="40" rx="4" fill="white" opacity="0.3"/>
    <rect x="190" y="30" width="80" height="40" rx="4" fill="white" opacity="0.3"/>
    <rect x="30" y="90" width="240" height="20" rx="4" fill="white" opacity="0.25"/>
    <rect x="30" y="120" width="200" height="20" rx="4" fill="white" opacity="0.25"/>
    <rect x="30" y="150" width="180" height="20" rx="4" fill="white" opacity="0.25"/>
  </g>
  
  <text x="600" y="500" font-family="Arial, sans-serif" font-size="36" font-weight="700" fill="white" text-anchor="middle" opacity="0.9">
    TECHNOLOGY
  </text>
</svg>